# xmcd CD database file
#
# Track frame offsets:
#	150
#	22929
#	26262
#	43167
#	57308
#	76584
#	100037
#	112927
#	137046
#	151642
#	173410
#	188471
#	215324
#
# Disc length: 3157 seconds
#
# Revision: 2
# Processed by: cddbd v1.5.1PL2 Copyright (c) Steve Scherf et al.
# Submitted via: CDex 1.51
#
DISCID=870c530d
DTITLE=The Shafran Klegseth Band - Relentless Blues
DYEAR=1900
DGENRE=Blues
TTITLE0=I'll Be Doggone
TTITLE1=My Baby's Bad (Intro)
TTITLE2=My Baby's Bad
TTITLE3=Don't Say Never
TTITLE4=Records Of The Blues
TTITLE5=Born In Chicago
TTITLE6=One Good Woman
TTITLE7=The Bed You Made
TTITLE8=Should've Been Gone
TTITLE9=If I Ever Did You Wrong
TTITLE10=Get Me To Vegas
TTITLE11=Nothing But The Blues
TTITLE12=57 Miles
EXTD=
EXTT0=
EXTT1=
EXTT2=
EXTT3=
EXTT4=
EXTT5=
EXTT6=
EXTT7=
EXTT8=
EXTT9=
EXTT10=
EXTT11=
EXTT12=
PLAYORDER=
